<svg width="30" height="30" viewBox="0 0 30 30" fill="none" xmlns="http://www.w3.org/2000/svg">
<g filter="url(#filter0_i_17004_4049)">
<g clip-path="url(#clip0_17004_4049)">
<rect width="29.9767" height="29.9767" rx="3.74709" fill="url(#paint0_linear_17004_4049)"/>
<path d="M11.9544 19.1162C11.3349 19.1162 10.7996 18.9479 10.3484 18.6113C9.90083 18.2747 9.55529 17.7985 9.3118 17.1826C9.06831 16.5632 8.94656 15.8327 8.94656 14.9912C8.94656 14.1462 9.06831 13.4139 9.3118 12.7944C9.55529 12.175 9.90083 11.6969 10.3484 11.3604C10.7996 11.0238 11.3349 10.8555 11.9544 10.8555C12.5703 10.8555 13.102 11.0238 13.5496 11.3604C14.0008 11.6969 14.3481 12.175 14.5916 12.7944C14.8351 13.4139 14.9568 14.1462 14.9568 14.9912C14.9568 15.8327 14.8351 16.5632 14.5916 17.1826C14.3481 17.7985 14.0008 18.2747 13.5496 18.6113C13.102 18.9479 12.5703 19.1162 11.9544 19.1162ZM11.9544 18.1011C12.5345 18.1011 12.991 17.8254 13.324 17.2739C13.6606 16.7189 13.8289 15.958 13.8289 14.9912C13.8289 14.0208 13.6606 13.2581 13.324 12.7031C12.991 12.1481 12.5345 11.8706 11.9544 11.8706C11.3707 11.8706 10.9106 12.1481 10.574 12.7031C10.241 13.2581 10.0745 14.0208 10.0745 14.9912C10.0745 15.958 10.241 16.7189 10.574 17.2739C10.9106 17.8254 11.3707 18.1011 11.9544 18.1011ZM18.3195 19.1162C17.7287 19.1162 17.2167 18.9998 16.7834 18.7671C16.3537 18.5343 16.0207 18.2157 15.7844 17.811C15.5481 17.4064 15.4299 16.9463 15.4299 16.4307H16.6062C16.6062 16.9642 16.7548 17.3796 17.052 17.6768C17.3528 17.974 17.7681 18.1226 18.2981 18.1226C18.8065 18.1226 19.2183 17.9937 19.5334 17.7358C19.8521 17.478 20.0114 17.1325 20.0114 16.6992C20.0114 16.3018 19.8414 15.9831 19.5012 15.7432C19.1646 15.4997 18.7206 15.3779 18.1692 15.3779H17.5031V14.4058H18.1692C18.6561 14.4058 19.0482 14.2948 19.3454 14.0728C19.6462 13.8507 19.7966 13.5553 19.7966 13.1865C19.7966 12.7712 19.657 12.4435 19.3777 12.2036C19.0984 11.9637 18.7295 11.8438 18.2712 11.8438C17.7986 11.8438 17.4244 11.9762 17.1487 12.2412C16.8765 12.5062 16.7404 12.8714 16.7404 13.3369H15.5964C15.5964 12.8535 15.7092 12.4256 15.9348 12.0532C16.1604 11.6772 16.4737 11.3836 16.8747 11.1724C17.2758 10.9611 17.7431 10.8555 18.2766 10.8555C18.785 10.8555 19.2398 10.9521 19.6408 11.1455C20.0419 11.3353 20.357 11.6003 20.5862 11.9404C20.8189 12.277 20.9353 12.6619 20.9353 13.0952C20.9353 13.5177 20.8028 13.8848 20.5378 14.1963C20.2728 14.5042 19.9166 14.7191 19.469 14.8408V14.8569C19.9953 14.9393 20.4125 15.1541 20.7204 15.5015C21.0284 15.8488 21.1823 16.2588 21.1823 16.7314C21.1823 17.1969 21.0588 17.6087 20.8117 17.9668C20.5647 18.3249 20.2245 18.606 19.7912 18.8101C19.3615 19.0142 18.871 19.1162 18.3195 19.1162Z" fill="url(#paint1_linear_17004_4049)"/>
<path d="M11.9544 19.1162C11.3349 19.1162 10.7996 18.9479 10.3484 18.6113C9.90083 18.2747 9.55529 17.7985 9.3118 17.1826C9.06831 16.5632 8.94656 15.8327 8.94656 14.9912C8.94656 14.1462 9.06831 13.4139 9.3118 12.7944C9.55529 12.175 9.90083 11.6969 10.3484 11.3604C10.7996 11.0238 11.3349 10.8555 11.9544 10.8555C12.5703 10.8555 13.102 11.0238 13.5496 11.3604C14.0008 11.6969 14.3481 12.175 14.5916 12.7944C14.8351 13.4139 14.9568 14.1462 14.9568 14.9912C14.9568 15.8327 14.8351 16.5632 14.5916 17.1826C14.3481 17.7985 14.0008 18.2747 13.5496 18.6113C13.102 18.9479 12.5703 19.1162 11.9544 19.1162ZM11.9544 18.1011C12.5345 18.1011 12.991 17.8254 13.324 17.2739C13.6606 16.7189 13.8289 15.958 13.8289 14.9912C13.8289 14.0208 13.6606 13.2581 13.324 12.7031C12.991 12.1481 12.5345 11.8706 11.9544 11.8706C11.3707 11.8706 10.9106 12.1481 10.574 12.7031C10.241 13.2581 10.0745 14.0208 10.0745 14.9912C10.0745 15.958 10.241 16.7189 10.574 17.2739C10.9106 17.8254 11.3707 18.1011 11.9544 18.1011ZM18.3195 19.1162C17.7287 19.1162 17.2167 18.9998 16.7834 18.7671C16.3537 18.5343 16.0207 18.2157 15.7844 17.811C15.5481 17.4064 15.4299 16.9463 15.4299 16.4307H16.6062C16.6062 16.9642 16.7548 17.3796 17.052 17.6768C17.3528 17.974 17.7681 18.1226 18.2981 18.1226C18.8065 18.1226 19.2183 17.9937 19.5334 17.7358C19.8521 17.478 20.0114 17.1325 20.0114 16.6992C20.0114 16.3018 19.8414 15.9831 19.5012 15.7432C19.1646 15.4997 18.7206 15.3779 18.1692 15.3779H17.5031V14.4058H18.1692C18.6561 14.4058 19.0482 14.2948 19.3454 14.0728C19.6462 13.8507 19.7966 13.5553 19.7966 13.1865C19.7966 12.7712 19.657 12.4435 19.3777 12.2036C19.0984 11.9637 18.7295 11.8438 18.2712 11.8438C17.7986 11.8438 17.4244 11.9762 17.1487 12.2412C16.8765 12.5062 16.7404 12.8714 16.7404 13.3369H15.5964C15.5964 12.8535 15.7092 12.4256 15.9348 12.0532C16.1604 11.6772 16.4737 11.3836 16.8747 11.1724C17.2758 10.9611 17.7431 10.8555 18.2766 10.8555C18.785 10.8555 19.2398 10.9521 19.6408 11.1455C20.0419 11.3353 20.357 11.6003 20.5862 11.9404C20.8189 12.277 20.9353 12.6619 20.9353 13.0952C20.9353 13.5177 20.8028 13.8848 20.5378 14.1963C20.2728 14.5042 19.9166 14.7191 19.469 14.8408V14.8569C19.9953 14.9393 20.4125 15.1541 20.7204 15.5015C21.0284 15.8488 21.1823 16.2588 21.1823 16.7314C21.1823 17.1969 21.0588 17.6087 20.8117 17.9668C20.5647 18.3249 20.2245 18.606 19.7912 18.8101C19.3615 19.0142 18.871 19.1162 18.3195 19.1162Z" fill="url(#paint2_linear_17004_4049)" fill-opacity="0.8"/>
</g>
<rect x="0.5" y="0.5" width="28.9767" height="28.9767" rx="3.24709" stroke="#086CEC" stroke-opacity="0.45"/>
</g>
<defs>
<filter id="filter0_i_17004_4049" x="0" y="0" width="29.9767" height="31.8504" filterUnits="userSpaceOnUse" color-interpolation-filters="sRGB">
<feFlood flood-opacity="0" result="BackgroundImageFix"/>
<feBlend mode="normal" in="SourceGraphic" in2="BackgroundImageFix" result="shape"/>
<feColorMatrix in="SourceAlpha" type="matrix" values="0 0 0 0 0 0 0 0 0 0 0 0 0 0 0 0 0 0 127 0" result="hardAlpha"/>
<feOffset dy="1.87355"/>
<feGaussianBlur stdDeviation="0.936773"/>
<feComposite in2="hardAlpha" operator="arithmetic" k2="-1" k3="1"/>
<feColorMatrix type="matrix" values="0 0 0 0 0 0 0 0 0 0.251965 0 0 0 0 0.575192 0 0 0 1 0"/>
<feBlend mode="normal" in2="shape" result="effect1_innerShadow_17004_4049"/>
</filter>
<linearGradient id="paint0_linear_17004_4049" x1="14.9884" y1="0" x2="14.9884" y2="29.9767" gradientUnits="userSpaceOnUse">
<stop stop-color="#1D80FF"/>
<stop offset="1" stop-opacity="0.26"/>
</linearGradient>
<linearGradient id="paint1_linear_17004_4049" x1="15.0645" y1="-0.0126953" x2="15.0645" y2="29.9873" gradientUnits="userSpaceOnUse">
<stop offset="0.246989" stop-color="white"/>
<stop offset="0.895505" stop-color="white" stop-opacity="0.7"/>
</linearGradient>
<linearGradient id="paint2_linear_17004_4049" x1="5.98721" y1="29.9873" x2="29.6611" y2="29.9163" gradientUnits="userSpaceOnUse">
<stop stop-color="#BFBFBF"/>
<stop offset="0.13071" stop-color="#C7C7C7"/>
<stop offset="0.243285" stop-color="#EAEAEA"/>
<stop offset="0.432992" stop-color="#CACACA"/>
<stop offset="0.812925" stop-color="#A4CCFF"/>
<stop offset="1" stop-color="#787878"/>
</linearGradient>
<clipPath id="clip0_17004_4049">
<rect width="29.9767" height="29.9767" rx="3.74709" fill="white"/>
</clipPath>
</defs>
</svg>
